<?xml version="1.0" encoding="UTF-8"?>
<svg width="70px" height="13px" viewBox="0 0 70 13" version="1.1" xmlns="http://www.w3.org/2000/svg" xmlns:xlink="http://www.w3.org/1999/xlink">
    <!-- Generator: Sketch 48.2 (47327) - http://www.bohemiancoding.com/sketch -->
    <title>Stars</title>
    <desc>Created with Sketch.</desc>
    <defs></defs>
    <g id="Desktop" stroke="none" stroke-width="1" fill="none" fill-rule="evenodd" transform="translate(-458.000000, -477.000000)" opacity="0.200000003">
        <g id="Design" transform="translate(304.000000, 100.000000)" fill="#000000" fill-rule="nonzero">
            <g id="pf_panel" transform="translate(60.000000, 312.000000)">
                <g id="Overrides/Stars/3-Stars" transform="translate(94.000000, 65.000000)">
                    <g id="Overrides/Stars/States/Active">
                        <path d="M6.7649745,0.27480621 L8.13571623,4.52877337 L12.4186286,4.58074853 C12.7871793,4.58524638 12.9397488,5.07751114 12.6441454,5.30790105 L9.20799385,7.98862001 L10.4843332,12.2745719 C10.5939925,12.6433956 10.1949279,12.9472504 9.89407988,12.7238572 L6.40023801,10.1265983 L2.90591936,12.7233574 C2.60554813,12.9467507 2.20600671,12.6423961 2.31566605,12.2740721 L3.59200539,7.98812025 L0.15585387,5.30740129 C-0.139749564,5.07701138 0.0128199502,4.58474662 0.381370682,4.58024877 L4.66428301,4.52827361 L6.03502473,0.274306449 C6.15326611,-0.091518734 6.64720991,-0.091518734 6.7649745,0.27480621 Z" id="Star"></path>
                    </g>
                    <g id="Overrides/Stars/States/Active" transform="translate(14.399999, 0.000000)">
                        <path d="M6.7649745,0.27480621 L8.13571623,4.52877337 L12.4186286,4.58074853 C12.7871793,4.58524638 12.9397488,5.07751114 12.6441454,5.30790105 L9.20799385,7.98862001 L10.4843332,12.2745719 C10.5939925,12.6433956 10.1949279,12.9472504 9.89407988,12.7238572 L6.40023801,10.1265983 L2.90591936,12.7233574 C2.60554813,12.9467507 2.20600671,12.6423961 2.31566605,12.2740721 L3.59200539,7.98812025 L0.15585387,5.30740129 C-0.139749564,5.07701138 0.0128199502,4.58474662 0.381370682,4.58024877 L4.66428301,4.52827361 L6.03502473,0.274306449 C6.15326611,-0.091518734 6.64720991,-0.091518734 6.7649745,0.27480621 Z" id="Star"></path>
                    </g>
                    <g id="Overrides/Stars/States/Active" transform="translate(28.799998, 0.000000)">
                        <path d="M6.7649745,0.27480621 L8.13571623,4.52877337 L12.4186286,4.58074853 C12.7871793,4.58524638 12.9397488,5.07751114 12.6441454,5.30790105 L9.20799385,7.98862001 L10.4843332,12.2745719 C10.5939925,12.6433956 10.1949279,12.9472504 9.89407988,12.7238572 L6.40023801,10.1265983 L2.90591936,12.7233574 C2.60554813,12.9467507 2.20600671,12.6423961 2.31566605,12.2740721 L3.59200539,7.98812025 L0.15585387,5.30740129 C-0.139749564,5.07701138 0.0128199502,4.58474662 0.381370682,4.58024877 L4.66428301,4.52827361 L6.03502473,0.274306449 C6.15326611,-0.091518734 6.64720991,-0.091518734 6.7649745,0.27480621 Z" id="Star"></path>
                    </g>
                    <g id="Overrides/Stars/States/Active" transform="translate(43.199997, 0.000000)">
                        <path d="M6.7649745,0.27480621 L8.13571623,4.52877337 L12.4186286,4.58074853 C12.7871793,4.58524638 12.9397488,5.07751114 12.6441454,5.30790105 L9.20799385,7.98862001 L10.4843332,12.2745719 C10.5939925,12.6433956 10.1949279,12.9472504 9.89407988,12.7238572 L6.40023801,10.1265983 L2.90591936,12.7233574 C2.60554813,12.9467507 2.20600671,12.6423961 2.31566605,12.2740721 L3.59200539,7.98812025 L0.15585387,5.30740129 C-0.139749564,5.07701138 0.0128199502,4.58474662 0.381370682,4.58024877 L4.66428301,4.52827361 L6.03502473,0.274306449 C6.15326611,-0.091518734 6.64720991,-0.091518734 6.7649745,0.27480621 Z" id="Star"></path>
                    </g>
                    <g id="Overrides/Stars/States/Active" transform="translate(57.599997, 0.000000)">
                        <path d="M6.7649745,0.27480621 L8.13571623,4.52877337 L12.4186286,4.58074853 C12.7871793,4.58524638 12.9397488,5.07751114 12.6441454,5.30790105 L9.20799385,7.98862001 L10.4843332,12.2745719 C10.5939925,12.6433956 10.1949279,12.9472504 9.89407988,12.7238572 L6.40023801,10.1265983 L2.90591936,12.7233574 C2.60554813,12.9467507 2.20600671,12.6423961 2.31566605,12.2740721 L3.59200539,7.98812025 L0.15585387,5.30740129 C-0.139749564,5.07701138 0.0128199502,4.58474662 0.381370682,4.58024877 L4.66428301,4.52827361 L6.03502473,0.274306449 C6.15326611,-0.091518734 6.64720991,-0.091518734 6.7649745,0.27480621 Z" id="Star"></path>
                    </g>
                </g>
            </g>
        </g>
    </g>
</svg>